# xmcd CD database file
# Copyright (C) 1996 Ti Kan
#
# Track frame offsets:
# 	150
# 	22644
# 	46977
# 	70462
# 	92892
# 	114535
# 	150860
# 	157309
# 	183027
# 	209452
# 	223582
#
# Disc length: 3235 seconds
#
# Revision: 1
# Processed by: cddbd v1.4b41PL1 Copyright (c) Steve Scherf et al.
# Submitted via: DiscPlay 3.3.1
#
DISCID=8e0ca10b
DTITLE=Craig Erickson - Two Sides Of The Blues
DYEAR=1900
DGENRE=
TTITLE0=East Texas Blues
TTITLE1=You Bring Me Up
TTITLE2=You Just Don't Know
TTITLE3=Little Cafe
TTITLE4=Ego Tripper
TTITLE5=No Reply
TTITLE6=Buried Treasure
TTITLE7=Wealthy Man
TTITLE8=Out Of Town
TTITLE9=Natural Disaster
TTITLE10=Beggar Or A King
EXTD=
EXTT0=
EXTT1=
EXTT2=
EXTT3=
EXTT4=
EXTT5=
EXTT6=
EXTT7=
EXTT8=
EXTT9=
EXTT10=
PLAYORDER=
